<?xml version="1.0" standalone="no"?>
<!DOCTYPE svg PUBLIC "-//W3C//DTD SVG 20010904//EN"
 "http://www.w3.org/TR/2001/REC-SVG-20010904/DTD/svg10.dtd">
<svg version="1.0" xmlns="http://www.w3.org/2000/svg"
 width="1219.000000pt" height="1280.000000pt" viewBox="0 0 1219.000000 1280.000000"
 preserveAspectRatio="xMidYMid meet">
<metadata>
Created by potrace 1.15, written by Peter Selinger 2001-2017
</metadata>
<g transform="translate(0.000000,1280.000000) scale(0.100000,-0.100000)"
fill="#000000" stroke="none">
<path d="M1520 12751 c-249 -53 -493 -219 -654 -443 -59 -83 -119 -210 -152
-323 -21 -72 -27 -118 -31 -230 -5 -139 -5 -141 36 -303 43 -170 85 -293 195
-574 101 -259 136 -411 136 -583 0 -119 -17 -206 -74 -380 -72 -223 -88 -303
-88 -440 0 -95 5 -139 25 -215 32 -124 84 -251 144 -353 26 -45 59 -104 72
-130 32 -64 173 -212 274 -288 79 -59 82 -61 128 -55 42 6 55 2 122 -34 210
-113 836 -168 1365 -119 68 6 126 8 129 5 3 -3 -50 -90 -117 -193 -180 -274
-179 -273 -284 -456 -242 -423 -468 -932 -647 -1457 -48 -141 -159 -535 -193
-685 -153 -668 -194 -956 -266 -1865 -22 -278 -47 -561 -56 -630 -64 -515
-155 -800 -331 -1034 -66 -89 -334 -366 -438 -453 -33 -28 -57 -54 -53 -58 28
-30 285 -43 400 -21 46 8 135 25 198 36 223 41 495 127 670 214 147 73 261
146 423 268 64 49 121 86 126 83 20 -12 73 -307 91 -505 15 -165 -4 -449 -45
-675 -8 -44 -22 -127 -31 -185 -9 -58 -22 -116 -29 -130 -7 -14 -18 -50 -25
-80 -6 -30 -19 -84 -27 -120 -20 -87 -26 -270 -8 -270 7 0 20 -3 28 -6 20 -7
271 162 392 265 359 306 648 631 812 911 115 195 190 415 258 750 30 150 33
184 49 510 9 201 11 395 5 720 -15 861 -9 1200 31 1575 43 418 81 612 200
1025 128 444 360 932 725 1525 50 83 115 188 142 235 28 47 87 146 133 220
348 574 503 1017 554 1583 8 88 17 161 19 163 11 11 216 38 225 30 2 -3 13
-63 23 -133 23 -159 71 -391 104 -509 99 -348 301 -753 562 -1128 31 -45 95
-137 143 -206 47 -69 120 -173 162 -231 395 -552 633 -977 786 -1405 126 -350
188 -599 246 -979 54 -360 79 -664 96 -1165 42 -1274 70 -1521 231 -2015 44
-137 167 -393 259 -540 152 -244 413 -613 639 -905 173 -223 207 -260 238
-260 25 0 25 1 18 64 -3 36 -2 73 3 83 9 17 -29 361 -43 382 -3 5 -16 117 -30
248 -61 597 -60 828 4 1208 29 173 41 225 53 225 6 0 83 -71 172 -157 288
-280 428 -383 1025 -755 79 -50 166 -106 194 -126 71 -51 297 -182 327 -189
14 -3 49 -19 79 -34 94 -50 91 -36 -34 171 -120 199 -427 734 -468 817 -104
206 -179 439 -227 703 -48 267 -72 564 -95 1150 -43 1116 -94 1565 -245 2145
-100 387 -206 673 -382 1035 -182 375 -382 705 -615 1015 -29 38 -53 73 -53
77 0 5 109 8 243 8 260 0 405 10 614 40 238 34 346 72 467 164 32 24 72 47 90
50 71 14 319 243 369 342 14 27 48 86 75 131 59 98 111 224 143 348 18 70 23
117 23 210 0 141 -13 207 -89 447 -64 199 -80 295 -72 432 11 180 46 302 196
683 39 101 87 243 107 315 19 73 45 153 57 178 20 40 22 60 21 190 -1 163 -23
271 -86 417 -116 268 -356 491 -643 598 -142 53 -201 58 -545 46 -687 -25
-900 -47 -1250 -127 -396 -91 -784 -243 -1130 -444 -374 -218 -752 -506 -1189
-908 -101 -93 -115 -103 -141 -97 -31 7 -110 -13 -110 -27 0 -5 -9 -4 -21 2
-16 9 -34 7 -82 -10 -92 -30 -236 -36 -372 -15 -60 10 -130 19 -155 20 -26 1
-50 4 -55 7 -6 3 -29 9 -53 13 -36 6 -60 23 -149 103 -762 695 -1325 1053
-1978 1260 -104 33 -260 76 -345 96 -219 50 -350 70 -675 101 -62 6 -792 35
-860 34 -27 0 -88 -9 -135 -18z"/>
</g>
</svg>
